<svg width="20" height="22" viewBox="0 0 20 22" fill="none" xmlns="http://www.w3.org/2000/svg">
<path d="M3.06107 20.0451L3.50191 19.4383L3.06107 20.0451ZM1.95491 18.9389L2.56168 18.4981L1.95491 18.9389ZM18.0451 18.9389L17.4383 18.4981L18.0451 18.9389ZM16.9389 20.0451L16.4981 19.4383L16.9389 20.0451ZM16.9389 1.95491L17.3798 1.34815L16.9389 1.95491ZM18.0451 3.06107L17.4383 3.50191L18.0451 3.06107ZM3.06107 1.95491L3.50191 2.56168L3.06107 1.95491ZM1.95491 3.06107L2.56168 3.50191L1.95491 3.06107ZM11.1461 5.59531L11.2635 6.33608L11.1461 5.59531ZM9.5818 5.59531L9.46447 6.33608L9.5818 5.59531ZM6 14.25C5.58579 14.25 5.25 14.5858 5.25 15C5.25 15.4142 5.58579 15.75 6 15.75V14.25ZM14 15.75C14.4142 15.75 14.75 15.4142 14.75 15C14.75 14.5858 14.4142 14.25 14 14.25V15.75ZM6 10.25C5.58579 10.25 5.25 10.5858 5.25 11C5.25 11.4142 5.58579 11.75 6 11.75V10.25ZM9 11.75C9.41421 11.75 9.75 11.4142 9.75 11C9.75 10.5858 9.41421 10.25 9 10.25V11.75ZM19 10H18.25V12H19H19.75V10H19ZM1 12H1.75V10H1H0.25V12H1ZM10 21V20.25C8.10843 20.25 6.74999 20.249 5.69804 20.135C4.66013 20.0225 4.00992 19.8074 3.50191 19.4383L3.06107 20.0451L2.62023 20.6518C3.42656 21.2377 4.37094 21.5 5.53648 21.6263C6.68798 21.751 8.14184 21.75 10 21.75V21ZM1 12H0.25C0.25 13.8582 0.248971 15.312 0.373728 16.4635C0.500006 17.6291 0.762324 18.5734 1.34815 19.3798L1.95491 18.9389L2.56168 18.4981C2.19259 17.9901 1.97745 17.3399 1.865 16.302C1.75103 15.25 1.75 13.8916 1.75 12H1ZM3.06107 20.0451L3.50191 19.4383C3.14111 19.1762 2.82382 18.8589 2.56168 18.4981L1.95491 18.9389L1.34815 19.3798C1.70281 19.8679 2.13209 20.2972 2.62023 20.6518L3.06107 20.0451ZM19 12H18.25C18.25 13.8916 18.249 15.25 18.135 16.302C18.0225 17.3399 17.8074 17.9901 17.4383 18.4981L18.0451 18.9389L18.6518 19.3798C19.2377 18.5734 19.5 17.6291 19.6263 16.4635C19.751 15.312 19.75 13.8582 19.75 12H19ZM10 21V21.75C11.8582 21.75 13.312 21.751 14.4635 21.6263C15.6291 21.5 16.5734 21.2377 17.3798 20.6518L16.9389 20.0451L16.4981 19.4383C15.9901 19.8074 15.3399 20.0225 14.302 20.135C13.25 20.249 11.8916 20.25 10 20.25V21ZM18.0451 18.9389L17.4383 18.4981C17.1762 18.8589 16.8589 19.1762 16.4981 19.4383L16.9389 20.0451L17.3798 20.6518C17.8679 20.2972 18.2972 19.8679 18.6518 19.3798L18.0451 18.9389ZM19 10H19.75C19.75 8.14184 19.751 6.68798 19.6263 5.53648C19.5 4.37094 19.2377 3.42656 18.6518 2.62023L18.0451 3.06107L17.4383 3.50191C17.8074 4.00992 18.0225 4.66013 18.135 5.69804C18.249 6.74999 18.25 8.10843 18.25 10H19ZM16.9389 1.95491L16.4981 2.56168C16.8589 2.82382 17.1762 3.14111 17.4383 3.50191L18.0451 3.06107L18.6518 2.62023C18.2972 2.13209 17.8679 1.70281 17.3798 1.34815L16.9389 1.95491ZM1 10H1.75C1.75 8.10843 1.75103 6.74999 1.865 5.69804C1.97745 4.66013 2.19259 4.00992 2.56168 3.50191L1.95491 3.06107L1.34815 2.62023C0.762324 3.42656 0.500006 4.37094 0.373728 5.53648C0.248971 6.68798 0.25 8.14184 0.25 10H1ZM3.06107 1.95491L2.62023 1.34815C2.13209 1.70281 1.70281 2.13209 1.34815 2.62023L1.95491 3.06107L2.56168 3.50191C2.82382 3.14111 3.14111 2.82382 3.50191 2.56168L3.06107 1.95491ZM11.1461 5.59531L11.0288 4.85454C10.5883 4.92431 10.1396 4.92431 9.69912 4.85454L9.5818 5.59531L9.46447 6.33608C10.0604 6.43047 10.6675 6.43047 11.2635 6.33608L11.1461 5.59531ZM6 15V15.75H14V15V14.25H6V15ZM6 11V11.75H9V11V10.25H6V11ZM16.4405 1.65135L15.9103 1.12083C14.6701 2.36015 13.7663 3.25006 12.9856 3.8649C12.2161 4.47095 11.6262 4.75993 11.0288 4.85454L11.1461 5.59531L11.2635 6.33608C12.2116 6.1859 13.0379 5.73301 13.9137 5.04333C14.7783 4.36245 15.7488 3.40277 16.9706 2.18187L16.4405 1.65135ZM10 1V1.75C11.6617 1.75 12.9149 1.75053 13.9149 1.82911C14.9124 1.9075 15.5844 2.05963 16.1028 2.32103L16.4405 1.65135L16.7782 0.981678C16.0049 0.591725 15.107 0.418172 14.0324 0.333724C12.9603 0.249471 11.6391 0.25 10 0.25V1ZM16.4405 1.65135L16.1028 2.32103C16.2431 2.3918 16.374 2.4715 16.4981 2.56168L16.9389 1.95491L17.3798 1.34815C17.1892 1.20967 16.9892 1.08809 16.7782 0.981678L16.4405 1.65135ZM4.07222 1.43619L3.5419 1.96653C4.83246 3.25703 5.84545 4.26842 6.73841 4.98311C7.64243 5.70666 8.48904 6.18158 9.46447 6.33608L9.5818 5.59531L9.69912 4.85454C9.08459 4.75721 8.47813 4.45425 7.67572 3.81202C6.86225 3.16095 5.91543 2.21868 4.60254 0.905846L4.07222 1.43619ZM10 1V0.25C8.56371 0.25 7.37369 0.249733 6.38484 0.305723C5.39671 0.361672 4.55633 0.47576 3.82759 0.727205L4.07222 1.43619L4.31685 2.14517C4.85227 1.96043 5.53187 1.85642 6.46964 1.80332C7.40668 1.75027 8.54848 1.75 10 1.75V1ZM4.07222 1.43619L3.82759 0.727205C3.38699 0.879231 2.98789 1.08103 2.62023 1.34815L3.06107 1.95491L3.50191 2.56168C3.73848 2.3898 4.00284 2.25352 4.31685 2.14517L4.07222 1.43619Z" fill="#2D264B"/>
</svg>
